<?xml version="1.0" encoding="utf-8"?>
<!-- Generator: Adobe Illustrator 24.1.2, SVG Export Plug-In . SVG Version: 6.00 Build 0)  -->
<svg version="1.1" id="Layer_1" focusable="false" xmlns="http://www.w3.org/2000/svg" xmlns:xlink="http://www.w3.org/1999/xlink"
	 x="0px" y="0px" viewBox="0 0 448 512" style="enable-background:new 0 0 448 512;" xml:space="preserve">
<style type="text/css">
	.st0{fill:#FFFFFF;}
</style>
<path class="st0" d="M432,416h-23.4L277.9,53.7c-4.4-13-16.6-21.7-30.3-21.7h-47.2c-13.7,0-25.9,8.7-30.3,21.7L39.4,416H16
	c-8.8,0-16,7.2-16,16v32c0,8.8,7.2,16,16,16h128c8.8,0,16-7.2,16-16v-32c0-8.8-7.2-16-16-16h-19.6l23.3-64h152.6l23.3,64H304
	c-8.8,0-16,7.2-16,16v32c0,8.8,7.2,16,16,16h128c8.8,0,16-7.2,16-16v-32C448,423.2,440.8,416,432,416z M176.9,272L224,142.5
	L271.1,272H176.9z"/>
</svg>
